<?xml version="1.0" encoding="UTF-8"?>
<svg width="800" height="600" xmlns="http://www.w3.org/2000/svg">
  <defs>
    <style>
      .folder { fill: #f0f0f0; stroke: #333; stroke-width: 2; }
      .subfolder { fill: #fff; stroke: #666; stroke-width: 1.5; }
      .monorepo { fill: #fff9f0; stroke: #f39c12; stroke-width: 2; }
      .item { fill: #e8f4ff; stroke: #4a90e2; stroke-width: 1; }
      .external { fill: #fff9e6; stroke: #f39c12; stroke-width: 1; stroke-dasharray: 5,5; }
      .text { font-family: Arial, sans-serif; font-size: 14px; fill: #333; }
      .title { font-family: Arial, sans-serif; font-size: 18px; font-weight: bold; fill: #333; }
      .label { font-family: Arial, sans-serif; font-size: 12px; fill: #666; }
    </style>
  </defs>
  
  <!-- Main repo container -->
  <rect x="50" y="20" width="700" height="550" class="folder" rx="5"/>
  <text x="70" y="45" class="text" font-weight="bold">eivo</text>
  <!-- GitHub icon -->
  <svg x="715" y="25" width="20" height="20">
    <path fill="#24292e" d="M10 0C4.477 0 0 4.477 0 10c0 4.418 2.865 8.166 6.839 9.489.5.092.682-.217.682-.482 0-.237-.008-.866-.013-1.7-2.782.603-3.369-1.34-3.369-1.34-.454-1.156-1.11-1.463-1.11-1.463-.908-.62.069-.608.069-.608 1.003.07 1.531 1.03 1.531 1.03.892 1.529 2.341 1.087 2.91.831.092-.646.35-1.086.636-1.336-2.22-.253-4.555-1.11-4.555-4.943 0-1.091.39-1.984 1.029-2.683-.103-.253-.446-1.27.098-2.647 0 0 .84-.269 2.75 1.025A9.578 9.578 0 0110 4.836c.85.004 1.705.114 2.504.336 1.909-1.294 2.747-1.025 2.747-1.025.546 1.377.203 2.394.1 2.647.64.699 1.028 1.592 1.028 2.683 0 3.842-2.339 4.687-4.566 4.935.359.309.678.919.678 1.852 0 1.336-.012 2.415-.012 2.743 0 .267.18.578.688.48C17.137 18.163 20 14.418 20 10c0-5.523-4.477-10-10-10z"/>
  </svg>
  
  <!-- PNPM Monorepo container -->
  <rect x="80" y="70" width="660" height="280" class="monorepo" rx="3"/>
  <text x="90" y="90" class="label">pnpm workspace</text>
  <!-- PNPM icon -->
  <rect x="710" y="78" width="20" height="20" fill="#F9AD00" rx="2"/>
  <circle cx="715" cy="85" r="2" fill="white"/>
  <circle cx="720" cy="85" r="2" fill="white"/>
  <circle cx="725" cy="85" r="2" fill="white"/>
  <circle cx="715" cy="91" r="2" fill="white"/>
  <circle cx="720" cy="91" r="2" fill="white"/>
  <circle cx="725" cy="91" r="2" fill="white"/>
  
  <!-- Apps section -->
  <rect x="100" y="110" width="200" height="155" class="subfolder" rx="3"/>
  <text x="110" y="130" class="label">apps/</text>
  <!-- TypeScript icon -->
  <rect x="275" y="118" width="16" height="16" fill="#3178c6" rx="2"/>
  <text x="283" y="130" font-family="Arial" font-size="10" font-weight="bold" fill="white" text-anchor="middle">TS</text>
  <rect x="110" y="145" width="180" height="30" class="item" rx="2"/>
  <text x="200" y="165" class="text" text-anchor="middle">lingv</text>
  <rect x="110" y="185" width="180" height="30" class="item" rx="2"/>
  <text x="200" y="205" class="text" text-anchor="middle">anvil</text>
  <rect x="110" y="225" width="180" height="30" class="item" rx="2"/>
  <text x="200" y="245" class="text" text-anchor="middle">realtime</text>
  
  <!-- Packages section -->
  <rect x="330" y="110" width="200" height="235" class="subfolder" rx="3"/>
  <text x="340" y="130" class="label">packages/</text>
  <!-- TypeScript icon -->
  <rect x="505" y="118" width="16" height="16" fill="#3178c6" rx="2"/>
  <text x="513" y="130" font-family="Arial" font-size="10" font-weight="bold" fill="white" text-anchor="middle">TS</text>
  <rect x="340" y="145" width="180" height="27" class="item" rx="2"/>
  <text x="430" y="162" class="text" text-anchor="middle">core</text>
  <rect x="340" y="177" width="180" height="27" class="item" rx="2"/>
  <text x="430" y="194" class="text" text-anchor="middle">foundry</text>
  <rect x="340" y="209" width="180" height="27" class="item" rx="2"/>
  <text x="430" y="226" class="text" text-anchor="middle">crafter</text>
  <rect x="340" y="241" width="180" height="27" class="item" rx="2"/>
  <text x="430" y="258" class="text" text-anchor="middle">contracts</text>
  <rect x="340" y="273" width="180" height="27" class="item" rx="2"/>
  <text x="430" y="290" class="text" text-anchor="middle">contentkit</text>
  <rect x="340" y="305" width="180" height="27" class="item" rx="2"/>
  <text x="430" y="322" class="text" text-anchor="middle">commons</text>
  
  <!-- Services section -->
  <rect x="560" y="110" width="170" height="115" class="subfolder" rx="3"/>
  <text x="570" y="130" class="label">services/</text>
  <!-- TypeScript icon -->
  <rect x="710" y="118" width="16" height="16" fill="#3178c6" rx="2"/>
  <text x="718" y="130" font-family="Arial" font-size="10" font-weight="bold" fill="white" text-anchor="middle">TS</text>
  <rect x="570" y="145" width="150" height="30" class="item" rx="2"/>
  <text x="645" y="165" class="text" text-anchor="middle">cloud</text>
  <rect x="570" y="185" width="150" height="30" class="item" rx="2"/>
  <text x="645" y="205" class="text" text-anchor="middle">job</text>
  
  <!-- External section -->
  <rect x="80" y="365" width="660" height="175" class="external" rx="3"/>
  <text x="90" y="385" class="label">external/ (submodules)</text>
  <rect x="100" y="405" width="280" height="125" class="subfolder" rx="3"/>
  <text x="110" y="425" class="text" font-weight="bold">eivo-sandbox</text>
  <rect x="120" y="440" width="250" height="35" class="item" rx="2"/>
  <!-- Go icon -->
  <rect x="130" y="448" width="18" height="18" fill="#00ADD8" rx="2"/>
  <text x="139" y="461" font-family="Arial" font-size="9" font-weight="bold" fill="white" text-anchor="middle">Go</text>
  <text x="245" y="462" class="text" text-anchor="middle">operator</text>
  <rect x="120" y="485" width="250" height="35" class="item" rx="2"/>
  <!-- TypeScript icon -->
  <rect x="130" y="493" width="18" height="18" fill="#3178c6" rx="2"/>
  <text x="139" y="506" font-family="Arial" font-size="9" font-weight="bold" fill="white" text-anchor="middle">TS</text>
  <text x="245" y="507" class="text" text-anchor="middle">theia</text>
  
  <rect x="420" y="405" width="280" height="100" class="subfolder" rx="3"/>
  <text x="430" y="425" class="text" font-weight="bold">eivo-editor</text>
  <!-- TypeScript icon -->
  <rect x="675" y="413" width="16" height="16" fill="#3178c6" rx="2"/>
  <text x="683" y="425" font-family="Arial" font-size="10" font-weight="bold" fill="white" text-anchor="middle">TS</text>
  <rect x="440" y="445" width="240" height="30" class="item" rx="2"/>
  <text x="560" y="465" class="text" text-anchor="middle">TipTap extension</text>
</svg>
